<svg xmlns="http://www.w3.org/2000/svg" viewBox="0 0 1123.51 1123.51"><defs><style>.cls-1{fill:#2e2d2c;}.cls-2,.cls-3,.cls-4{fill:#fff;}.cls-3,.cls-4{stroke:#01634b;stroke-miterlimit:10;}.cls-3{stroke-width:70px;}.cls-4{stroke-width:35px;}</style></defs><g id="Livello_3" data-name="Livello 3"><circle class="cls-1" cx="561.76" cy="561.76" r="561.76"/></g><g id="Livello_2" data-name="Livello 2"><path class="cls-2" d="M956.35,567.59l85.57-59-7.43-8.79a63.27,63.27,0,0,1-7.14-10.4l-5.29-9.63-85.57,59Z" transform="translate(-374.73 -11.7)"/><path class="cls-2" d="M956.35,749.41l85.57-59-7.43-8.79a63.7,63.7,0,0,1-7.14-10.4l-5.29-9.63-85.57,59Z" transform="translate(-374.73 -11.7)"/><path class="cls-3" d="M1122.18,620.83" transform="translate(-374.73 -11.7)"/><path class="cls-2" d="M959,383v524H924V383q8.68.53,17.5.52T959,383Z" transform="translate(-374.73 -11.7)"/><path class="cls-4" d="M941.49,726.44" transform="translate(-374.73 -11.7)"/><path class="cls-4" d="M1043.74,656" transform="translate(-374.73 -11.7)"/><path class="cls-2" d="M925.78,649.84l-85.57-59,7.43-8.79a63.7,63.7,0,0,0,7.14-10.4l5.29-9.63,85.57,59Z" transform="translate(-374.73 -11.7)"/><path class="cls-2" d="M1287.4,217.88a451.32,451.32,0,0,1-49.66,51.37c60,90.89,82,201.48,62.16,319.48-26.29,156.5-122,293.55-251.5,362a7,7,0,0,1-5.92.28,353,353,0,0,1-33.77-16.1,7,7,0,0,1-1.44-11.21q12-11.41,23.35-23.77c50.07-54.52,89.09-121,112.86-192.22,22-66,30.48-135.5,24.45-200.94-5.38-58.3-21.67-112.75-48.51-162.35a444.67,444.67,0,0,1-66.85,22.85,7,7,0,0,0,.86,2.61c52,90.79,60.76,204.47,23.65,315.68C1052.91,758.05,1011.25,822.9,959,872.75q-6.35,6-12.87,11.79a7,7,0,0,1-9.27,0q-6.54-5.74-12.86-11.79c-52.26-49.85-93.91-114.7-118.08-187.14C768.8,574.4,777.59,460.72,829.56,369.93a7,7,0,0,0,.86-2.61,444.67,444.67,0,0,1-66.85-22.85c-26.84,49.61-43.13,104-48.5,162.35-6,65.44,2.42,134.93,24.45,200.94C763.28,779,802.31,845.46,852.38,900q11.32,12.35,23.34,23.77A7,7,0,0,1,874.27,935a352.71,352.71,0,0,1-33.75,16.1,7,7,0,0,1-5.93-.28C705,882.28,609.38,745.23,583.1,588.73c-19.83-118,2.16-228.59,62.14-319.48a450.37,450.37,0,0,1-49.65-51.37A481.87,481.87,0,0,0,526.1,363.21c-21.42,74.46-25.58,156.45-12,237.11A601.64,601.64,0,0,0,617.13,848.61c54.22,76,124.56,135.95,203.4,173.4l10.42,5a7,7,0,0,0,5.33.28l10.88-3.83a429,429,0,0,0,90.51-44.68,7.07,7.07,0,0,1,7.65,0,428.74,428.74,0,0,0,90.51,44.68l10.88,3.83a7,7,0,0,0,5.33-.28l10.42-5c78.85-37.45,149.18-97.42,203.4-173.4a601.32,601.32,0,0,0,103.07-248.29c13.55-80.66,9.39-162.65-12-237.11A482.37,482.37,0,0,0,1287.4,217.88Z" transform="translate(-374.73 -11.7)"/></g></svg>